<svg width="500" height="500" viewBox="0 0 500 500" fill="none" xmlns="http://www.w3.org/2000/svg">
<rect width="500" height="500" fill="url(#paint0_linear_4_68)"/>
<g clip-path="url(#clip0_4_68)">
<path d="M199.619 81.1585C194.844 81.5018 190.809 81.8715 188.408 82.2148C157.969 86.387 132.646 100.884 118.27 122.326C114.182 128.426 111.781 133.047 109.434 139.332C103.472 155.307 102.47 172.392 106.374 192.17C106.77 194.283 107.324 197.293 107.561 198.878C109.671 212.873 118.692 225.522 131.433 232.387C140.929 237.51 152.113 239.068 162.98 236.797C172.265 234.869 181.577 229.403 187.802 222.3C194.053 215.144 197.72 207.169 199.118 197.716C199.698 193.649 199.513 186.361 198.696 182.532C196.638 172.762 192.128 164.602 185.032 157.816C179.176 152.191 172.028 148.336 163.666 146.224C155 143.901 149 145.5 145.5 143.5C142 141.5 139 139.332 139 130.67C139 122.009 151.269 113.004 157.942 109.572C163.666 106.614 171 102.917 181 102.917C191 102.917 199.802 105.02 205.5 107C216.684 110.829 225.939 118.312 236.938 130.67C253.002 148.679 260.366 169.039 263.743 193.227C264.402 198.033 264.534 210.391 263.98 216.728C261.844 241.497 253.93 268.854 240.953 296.264C234.807 309.229 225.706 324.096 218.373 333.18C211.858 341.26 199.883 352.984 188.514 362.412C176.486 372.393 163.086 382.005 141.192 396.344C124.575 407.249 121.779 409.203 118.798 412.002C116.292 414.353 115.712 416.439 117.162 417.891C118.429 419.132 120.328 419.317 124.179 418.498C134.176 416.386 152.983 407.936 172.872 396.66C198.353 382.216 221.433 365.052 237.339 348.733C247.072 338.725 261.58 321.878 270.232 310.47C296.161 276.274 308.928 246.937 312.304 213.824C312.963 207.275 312.963 190.744 312.278 184.513C308.4 148.521 289.329 116.147 261.052 97.504C248.022 88.8956 234.121 83.8256 218.083 81.7659C214.074 81.2642 203.127 80.8945 199.619 81.1585Z" fill="white"/>
<path d="M354.323 114.166C350.631 114.826 349.074 115.196 346.938 115.909C334.461 120.002 325.572 129.614 322.776 142.13C322.196 144.718 322.011 150.184 322.38 152.878C323.119 157.869 325.308 163.493 328.262 167.824C331.164 172.102 336.466 176.617 341.583 179.205C353.954 185.463 368.646 184.618 380.305 176.987C390.329 170.464 396.501 158.793 395.921 147.412C395.473 138.645 392.175 131.278 385.871 124.94C380.622 119.685 374.423 116.358 366.721 114.668C364.795 114.245 355.906 113.876 354.323 114.166Z" fill="white"/>
<path d="M355.379 206.72C346.832 207.539 338.391 211.42 332.509 217.177C329.555 220.082 327.84 222.405 325.994 225.97C323.224 231.384 322.275 235.265 322.275 241.286C322.275 244.243 322.407 246.013 322.749 247.623C325.097 258.556 332.034 267.243 342.322 272.155C359.414 280.341 380.173 274.954 390.302 259.691C394.919 252.746 396.818 244.349 395.578 236.427C394.549 229.905 391.569 223.699 387.137 218.814C383.787 215.144 380.543 212.714 376.111 210.549C371.416 208.278 367.354 207.143 362.237 206.694C358.887 206.403 358.597 206.403 355.379 206.72Z" fill="white"/>
</g>
<defs>
<linearGradient id="paint0_linear_4_68" x1="250" y1="0" x2="250" y2="500" gradientUnits="userSpaceOnUse">
<stop stop-color="#5C9BFF"/>
<stop offset="1" stop-color="#1F75FF"/>
</linearGradient>
<clipPath id="clip0_4_68">
<rect width="292" height="338" fill="white" transform="translate(104 81)"/>
</clipPath>
</defs>
</svg>
